<svg width="512" height="512" viewBox="0 0 512 512" fill="none" xmlns="http://www.w3.org/2000/svg">
<path d="M257.25 9.38194L468.953 131.608C469.726 132.055 470.203 132.88 470.203 133.773V378.227C470.203 379.12 469.726 379.945 468.953 380.392L257.25 502.618C256.477 503.065 255.523 503.065 254.75 502.618L43.0475 380.392C42.274 379.945 41.7975 379.12 41.7975 378.227V133.773C41.7975 132.88 42.274 132.055 43.0475 131.608L254.75 9.38194C255.523 8.93536 256.477 8.93536 257.25 9.38194Z" fill="#081E26" stroke="#05F2DB" stroke-width="15"/>
<path d="M174.443 287.771C171.416 288.162 166.875 288.357 160.82 288.357H127.568V372H102.227V144.363H164.189C209.307 143.777 236.26 158.035 245.049 187.137C247.783 196.219 249.102 206.277 249.004 217.312C248.223 234.891 243.975 249.197 236.26 260.232C228.545 271.268 216.777 279.129 200.957 283.816L207.109 293.777C210.137 298.465 213.701 303.738 217.803 309.598L255.742 359.109L229.668 374.93C224.688 365.945 219.316 356.912 213.555 347.83L185.43 304.031C182.012 298.66 178.35 293.24 174.443 287.771ZM160.82 266.092C191.289 266.385 210.43 257.547 218.242 239.578C220.977 233.328 222.441 226.004 222.637 217.605C222.93 209.109 222.051 201.736 220 195.486C218.047 189.236 214.727 184.012 210.039 179.812C200.566 171.023 185.283 166.727 164.189 166.922H127.568V266.092H160.82ZM344.541 287.771C341.514 288.162 336.973 288.357 330.918 288.357H297.666V372H272.324V144.363H334.287C379.404 143.777 406.357 158.035 415.146 187.137C417.881 196.219 419.199 206.277 419.102 217.312C418.32 234.891 414.072 249.197 406.357 260.232C398.643 271.268 386.875 279.129 371.055 283.816L377.207 293.777C380.234 298.465 383.799 303.738 387.9 309.598L425.84 359.109L399.766 374.93C394.785 365.945 389.414 356.912 383.652 347.83L355.527 304.031C352.109 298.66 348.447 293.24 344.541 287.771ZM330.918 266.092C361.387 266.385 380.527 257.547 388.34 239.578C391.074 233.328 392.539 226.004 392.734 217.605C393.027 209.109 392.148 201.736 390.098 195.486C388.145 189.236 384.824 184.012 380.137 179.812C370.664 171.023 355.381 166.727 334.287 166.922H297.666V266.092H330.918Z" fill="#05F2DB"/>
<path d="M174.443 287.771L175.257 287.19L174.909 286.703L174.315 286.78L174.443 287.771ZM127.568 288.357V287.357H126.568V288.357H127.568ZM127.568 372V373H128.568V372H127.568ZM102.227 372H101.227V373H102.227V372ZM102.227 144.363V143.363H101.227V144.363H102.227ZM164.189 144.363V145.363L164.202 145.363L164.189 144.363ZM245.049 187.137L246.006 186.848L246.006 186.848L245.049 187.137ZM249.004 217.312L250.003 217.357L250.004 217.339L250.004 217.321L249.004 217.312ZM200.957 283.816L200.673 282.858L199.419 283.229L200.106 284.342L200.957 283.816ZM207.109 293.777L206.259 294.303L206.264 294.311L206.269 294.32L207.109 293.777ZM217.803 309.598L216.984 310.171L216.996 310.189L217.009 310.206L217.803 309.598ZM255.742 359.109L256.261 359.964L257.214 359.386L256.536 358.501L255.742 359.109ZM229.668 374.93L228.793 375.415L229.298 376.324L230.187 375.785L229.668 374.93ZM213.555 347.83L214.399 347.294L214.396 347.29L213.555 347.83ZM185.43 304.031L184.586 304.568L184.588 304.572L185.43 304.031ZM160.82 266.092L160.83 265.092H160.82V266.092ZM218.242 239.578L217.326 239.177L217.325 239.179L218.242 239.578ZM222.637 217.605L221.637 217.571L221.637 217.582L222.637 217.605ZM220 195.486L219.046 195.785L219.048 195.791L219.05 195.798L220 195.486ZM210.039 179.812L209.359 180.546L209.365 180.552L209.372 180.557L210.039 179.812ZM164.189 166.922V167.922L164.199 167.922L164.189 166.922ZM127.568 166.922V165.922H126.568V166.922H127.568ZM127.568 266.092H126.568V267.092H127.568V266.092ZM174.315 286.78C171.354 287.162 166.865 287.357 160.82 287.357V289.357C166.885 289.357 171.478 289.162 174.571 288.763L174.315 286.78ZM160.82 287.357H127.568V289.357H160.82V287.357ZM126.568 288.357V372H128.568V288.357H126.568ZM127.568 371H102.227V373H127.568V371ZM103.227 372V144.363H101.227V372H103.227ZM102.227 145.363H164.189V143.363H102.227V145.363ZM164.202 145.363C186.668 145.071 204.5 148.479 217.775 155.501C231.016 162.506 239.774 173.132 244.092 187.426L246.006 186.848C241.534 172.04 232.422 160.987 218.71 153.733C205.031 146.497 186.828 143.069 164.176 143.363L164.202 145.363ZM244.091 187.425C246.792 196.396 248.101 206.353 248.004 217.304L250.004 217.321C250.102 206.202 248.774 196.041 246.006 186.848L244.091 187.425ZM248.005 217.268C247.23 234.714 243.018 248.821 235.44 259.659L237.079 260.805C244.932 249.574 249.216 235.068 250.003 217.357L248.005 217.268ZM235.44 259.659C227.882 270.47 216.327 278.219 200.673 282.858L201.241 284.775C217.228 280.038 229.208 272.065 237.079 260.805L235.44 259.659ZM200.106 284.342L206.259 294.303L207.96 293.252L201.808 283.291L200.106 284.342ZM206.269 294.32C209.305 299.02 212.877 304.304 216.984 310.171L218.622 309.024C214.526 303.172 210.968 297.909 207.949 293.235L206.269 294.32ZM217.009 310.206L254.948 359.718L256.536 358.501L218.596 308.989L217.009 310.206ZM255.223 358.254L229.149 374.075L230.187 375.785L256.261 359.964L255.223 358.254ZM230.543 374.445C225.552 365.442 220.171 356.392 214.399 347.294L212.71 348.366C218.462 357.432 223.823 366.448 228.793 375.415L230.543 374.445ZM214.396 347.29L186.271 303.491L184.588 304.572L212.713 348.37L214.396 347.29ZM186.273 303.494C182.845 298.107 179.173 292.673 175.257 287.19L173.63 288.353C177.526 293.808 181.178 299.213 184.586 304.568L186.273 303.494ZM160.811 267.092C191.429 267.386 211.106 258.5 219.159 239.977L217.325 239.179C209.754 256.593 191.15 265.383 160.83 265.092L160.811 267.092ZM219.158 239.979C221.955 233.586 223.439 226.128 223.636 217.629L221.637 217.582C221.444 225.88 219.998 233.071 217.326 239.177L219.158 239.979ZM223.636 217.64C223.932 209.059 223.047 201.563 220.95 195.175L219.05 195.798C221.055 201.909 221.927 209.16 221.637 217.571L223.636 217.64ZM220.954 195.188C218.95 188.773 215.534 183.392 210.706 179.068L209.372 180.557C213.92 184.631 217.144 189.699 219.046 195.785L220.954 195.188ZM210.719 179.079C200.971 170.035 185.377 165.726 164.18 165.922L164.199 167.922C185.19 167.727 200.162 172.012 209.359 180.546L210.719 179.079ZM164.189 165.922H127.568V167.922H164.189V165.922ZM126.568 166.922V266.092H128.568V166.922H126.568ZM127.568 267.092H160.82V265.092H127.568V267.092ZM344.541 287.771L345.355 287.19L345.007 286.703L344.413 286.78L344.541 287.771ZM297.666 288.357V287.357H296.666V288.357H297.666ZM297.666 372V373H298.666V372H297.666ZM272.324 372H271.324V373H272.324V372ZM272.324 144.363V143.363H271.324V144.363H272.324ZM334.287 144.363V145.363L334.3 145.363L334.287 144.363ZM415.146 187.137L416.104 186.848L416.104 186.848L415.146 187.137ZM419.102 217.312L420.101 217.357L420.101 217.339L420.102 217.321L419.102 217.312ZM371.055 283.816L370.771 282.858L369.517 283.229L370.204 284.342L371.055 283.816ZM377.207 293.777L376.356 294.303L376.362 294.311L376.367 294.32L377.207 293.777ZM387.9 309.598L387.081 310.171L387.094 310.189L387.107 310.206L387.9 309.598ZM425.84 359.109L426.359 359.964L427.312 359.386L426.634 358.501L425.84 359.109ZM399.766 374.93L398.891 375.415L399.395 376.324L400.284 375.785L399.766 374.93ZM383.652 347.83L384.497 347.294L384.494 347.29L383.652 347.83ZM355.527 304.031L354.684 304.568L354.686 304.572L355.527 304.031ZM330.918 266.092L330.928 265.092H330.918V266.092ZM388.34 239.578L387.424 239.177L387.423 239.179L388.34 239.578ZM392.734 217.605L391.735 217.571L391.735 217.582L392.734 217.605ZM390.098 195.486L389.143 195.785L389.145 195.791L389.147 195.798L390.098 195.486ZM380.137 179.812L379.457 180.546L379.463 180.552L379.469 180.557L380.137 179.812ZM334.287 166.922V167.922L334.296 167.922L334.287 166.922ZM297.666 166.922V165.922H296.666V166.922H297.666ZM297.666 266.092H296.666V267.092H297.666V266.092ZM344.413 286.78C341.452 287.162 336.963 287.357 330.918 287.357V289.357C336.982 289.357 341.576 289.162 344.669 288.763L344.413 286.78ZM330.918 287.357H297.666V289.357H330.918V287.357ZM296.666 288.357V372H298.666V288.357H296.666ZM297.666 371H272.324V373H297.666V371ZM273.324 372V144.363H271.324V372H273.324ZM272.324 145.363H334.287V143.363H272.324V145.363ZM334.3 145.363C356.766 145.071 374.598 148.479 387.872 155.501C401.113 162.506 409.872 173.132 414.189 187.426L416.104 186.848C411.632 172.04 402.519 160.987 388.807 153.733C375.129 146.497 356.926 143.069 334.274 143.363L334.3 145.363ZM414.189 187.425C416.89 196.396 418.199 206.353 418.102 217.304L420.102 217.321C420.2 206.202 418.872 196.041 416.104 186.848L414.189 187.425ZM418.103 217.268C417.327 234.714 413.115 248.821 405.538 259.659L407.177 260.805C415.029 249.574 419.313 235.068 420.101 217.357L418.103 217.268ZM405.538 259.659C397.98 270.47 386.424 278.219 370.771 282.858L371.339 284.775C387.326 280.038 399.305 272.065 407.177 260.805L405.538 259.659ZM370.204 284.342L376.356 294.303L378.058 293.252L371.905 283.291L370.204 284.342ZM376.367 294.32C379.403 299.02 382.974 304.304 387.081 310.171L388.72 309.024C384.623 303.172 381.066 297.909 378.047 293.235L376.367 294.32ZM387.107 310.206L425.046 359.718L426.634 358.501L388.694 308.989L387.107 310.206ZM425.321 358.254L399.247 374.075L400.284 375.785L426.359 359.964L425.321 358.254ZM400.64 374.445C395.65 365.442 390.269 356.392 384.497 347.294L382.808 348.366C388.56 357.432 393.921 366.448 398.891 375.415L400.64 374.445ZM384.494 347.29L356.369 303.491L354.686 304.572L382.811 348.37L384.494 347.29ZM356.371 303.494C352.943 298.107 349.271 292.673 345.355 287.19L343.727 288.353C347.624 293.808 351.276 299.213 354.684 304.568L356.371 303.494ZM330.908 267.092C361.526 267.386 381.203 258.5 389.257 239.977L387.423 239.179C379.851 256.593 361.247 265.383 330.928 265.092L330.908 267.092ZM389.256 239.979C392.053 233.586 393.536 226.128 393.734 217.629L391.735 217.582C391.542 225.88 390.095 233.071 387.424 239.177L389.256 239.979ZM393.734 217.64C394.03 209.059 393.144 201.563 391.048 195.175L389.147 195.798C391.153 201.909 392.025 209.16 391.735 217.571L393.734 217.64ZM391.052 195.188C389.048 188.773 385.631 183.392 380.804 179.068L379.469 180.557C384.017 184.631 387.242 189.699 389.143 195.785L391.052 195.188ZM380.817 179.079C371.069 170.035 355.474 165.726 334.278 165.922L334.296 167.922C355.288 167.727 370.259 172.012 379.457 180.546L380.817 179.079ZM334.287 165.922H297.666V167.922H334.287V165.922ZM296.666 166.922V266.092H298.666V166.922H296.666ZM297.666 267.092H330.918V265.092H297.666V267.092Z" fill="#05F2DB"/>
</svg>
